<?xml version="1.0" standalone="no"?>
<!DOCTYPE svg PUBLIC "-//W3C//DTD SVG 20010904//EN"
 "http://www.w3.org/TR/2001/REC-SVG-20010904/DTD/svg10.dtd">
<svg version="1.0" xmlns="http://www.w3.org/2000/svg"
 width="512.000000pt" height="512.000000pt" viewBox="0 0 512.000000 512.000000"
 preserveAspectRatio="xMidYMid meet">
<metadata>
Created by potrace 1.14, written by Peter Selinger 2001-2017
</metadata>
<g transform="translate(0.000000,512.000000) scale(0.100000,-0.100000)"
fill="#000000" stroke="none">
<path d="M1090 4362 l0 -227 258 -258 257 -257 225 0 225 1 226 227 c124 125
235 239 246 254 l20 27 258 -255 259 -254 225 0 226 0 258 258 257 257 0 228
c0 175 -3 227 -12 227 -7 0 -173 -163 -370 -362 l-356 -363 -148 145 c-81 80
-199 196 -263 259 -64 63 -165 162 -224 220 l-109 106 -359 -365 -359 -365
-361 363 c-198 199 -365 362 -370 362 -5 0 -9 -98 -9 -228z"/>
<path d="M1090 3772 l0 -152 145 0 c110 0 145 3 144 13 -1 6 -66 75 -145 152
l-144 139 0 -152z"/>
<path d="M3883 3778 c-79 -78 -143 -145 -143 -150 0 -4 65 -8 145 -8 l145 0 0
150 c0 83 -1 150 -2 150 -2 0 -67 -64 -145 -142z"/>
<path d="M2407 3772 c-75 -75 -137 -141 -137 -145 0 -4 131 -7 291 -7 175 0
289 4 287 9 -5 14 -285 281 -295 281 -4 0 -70 -62 -146 -138z"/>
<path d="M1090 3272 l0 -159 163 -80 c172 -86 324 -156 386 -178 21 -7 76 -31
122 -52 46 -22 245 -108 441 -193 l357 -153 168 73 c92 40 281 122 418 183
138 60 284 124 325 142 197 85 291 125 355 155 39 18 99 46 135 61 l65 28 3
165 c1 91 1 166 -2 166 -2 0 -119 -49 -258 -109 -226 -96 -282 -121 -403 -176
-16 -8 -101 -44 -188 -80 -86 -36 -194 -83 -240 -104 -45 -21 -107 -48 -137
-61 -30 -12 -82 -34 -115 -50 -120 -55 -123 -55 -195 -25 -36 15 -70 31 -75
35 -6 5 -32 16 -57 25 -26 8 -84 33 -130 54 -112 53 -409 182 -428 186 -8 2
-53 21 -100 43 -89 41 -598 262 -606 262 -2 0 -4 -71 -4 -158z"/>
<path d="M1092 2033 l3 -876 40 -13 c22 -8 51 -20 65 -28 14 -7 156 -70 315
-139 160 -69 326 -141 370 -160 44 -19 98 -43 120 -53 22 -9 42 -18 45 -19 3
-1 21 -9 40 -18 147 -67 192 -87 203 -87 7 0 17 -4 22 -8 13 -11 146 -69 203
-88 43 -15 46 -15 126 17 44 17 107 45 138 60 32 16 62 29 68 29 5 0 43 15 82
34 74 34 129 58 138 61 3 1 21 9 40 18 49 22 241 106 545 237 143 62 265 116
270 119 6 4 31 15 58 25 l47 18 0 873 0 873 -57 -19 c-31 -11 -92 -37 -137
-58 -45 -21 -92 -42 -105 -46 -14 -4 -93 -39 -175 -78 -83 -38 -175 -78 -205
-88 -30 -10 -59 -23 -65 -28 -6 -5 -58 -29 -116 -54 -179 -77 -424 -184 -481
-210 -130 -59 -125 -58 -166 -41 -21 8 -58 25 -83 36 -53 24 -319 140 -470
205 -58 24 -114 50 -125 57 -11 7 -47 23 -79 35 -32 12 -118 49 -190 83 -72
33 -153 69 -181 80 -27 11 -79 33 -114 49 -34 17 -92 41 -127 54 l-64 24 2
-876z m408 390 c19 -9 46 -22 60 -28 50 -25 356 -155 364 -155 4 0 31 -11 59
-25 29 -14 138 -63 242 -108 l190 -82 3 -564 c2 -534 1 -563 -15 -556 -10 4
-30 11 -44 15 -26 8 -213 88 -324 140 -33 15 -157 69 -275 120 -118 51 -235
101 -260 112 -25 12 -63 28 -85 38 l-40 17 3 567 2 566 43 -21 c23 -11 58 -27
77 -36z m2240 -514 c1 -532 0 -564 -17 -571 -10 -4 -45 -19 -78 -34 -33 -15
-64 -28 -70 -30 -5 -1 -50 -20 -100 -42 -49 -22 -144 -63 -210 -92 -66 -28
-153 -67 -193 -86 -40 -19 -76 -34 -79 -34 -3 0 -36 -14 -72 -31 -36 -18 -93
-42 -126 -54 -33 -12 -68 -26 -77 -30 -17 -7 -18 24 -18 557 l0 563 163 69
c89 38 194 84 232 102 39 17 142 62 230 99 151 64 210 89 350 155 33 15 61 27
62 26 2 -1 3 -256 3 -567z"/>
</g>
</svg>
